<svg width="133.000000" height="154.000000" viewBox="0 0 133 154" fill="none" xmlns="http://www.w3.org/2000/svg" xmlns:xlink="http://www.w3.org/1999/xlink">
	<desc>
			Created with Pixso.
	</desc>
	<defs/>
	<path id="Vector" d="M73.59 0C106.34 0 133 26.6 133 59.31C133 92.02 106.34 118.67 73.59 118.67C62.49 118.67 52.12 115.54 43.21 110.22C42.12 111.51 40.7 113.2 39.03 115.22C35.55 119.45 31.07 124.92 26.69 130.33C17.91 141.17 9.42 151.77 9.42 151.77C9.02 152.35 8.5 152.85 7.9 153.22C7.3 153.59 6.62 153.84 5.92 153.94C5.22 154.04 4.5 154 3.82 153.82C3.13 153.63 2.49 153.31 1.94 152.86C1.38 152.42 0.93 151.87 0.6 151.24C0.26 150.62 0.06 149.93 0.01 149.22C-0.04 148.52 0.05 147.81 0.28 147.14C0.51 146.47 0.88 145.85 1.36 145.33C1.36 145.33 9.87 134.71 18.66 123.85C23.06 118.42 27.53 112.93 31.04 108.66C32.53 106.86 33.72 105.42 34.79 104.14C22.19 93.25 14.15 77.21 14.15 59.31C14.15 26.6 40.84 0 73.59 0ZM73.59 10.33C46.43 10.33 24.51 32.19 24.51 59.31C24.51 86.43 46.43 108.32 73.59 108.32C100.75 108.32 122.68 86.43 122.68 59.31C122.68 32.19 100.75 10.33 73.59 10.33Z" fill="#121212" fill-opacity="1.000000" fill-rule="evenodd"/>
</svg>
