<svg width="54.000000" height="62.000000" viewBox="0 0 54 62" fill="none" xmlns="http://www.w3.org/2000/svg" xmlns:xlink="http://www.w3.org/1999/xlink">
	<desc>
			Created with Pixso.
	</desc>
	<defs/>
	<path id="Play" d="M-0.04 4.4C-0.04 0.58 4.98 -1.64 8.57 -0.15C12.7 2.6 47.74 22.63 50.91 25.3C54.08 27.97 54.99 32.22 50.69 35.38C46.4 38.53 12.27 58.92 8.57 60.69C4.88 62.46 0.12 60.05 -0.04 55.57C-0.19 51.09 -0.04 8.21 -0.04 4.4ZM5.14 7.71C5.14 8.69 5.11 51.84 5.06 52.73C4.97 54.18 6.21 55.64 7.95 54.78C9.68 53.91 45.52 32.21 46.95 31.65C48.37 31.09 48.28 29.66 46.95 28.76C45.62 27.87 9.12 6.68 8.05 5.75C6.99 4.82 5.14 6.21 5.14 7.71Z" fill="#121212" fill-opacity="1.000000" fill-rule="evenodd"/>
</svg>
